<svg xmlns="http://www.w3.org/2000/svg" viewBox="0 0 324 248"><defs><style>.cls-1{fill:#ddd7d7;stroke:#ccc;stroke-miterlimit:10;}</style></defs><title>cloud</title><g id="레이어_2" data-name="레이어 2"><g id="레이어_1-2" data-name="레이어 1"><path class="cls-1" d="M65.53,48.27a64.77,64.77,0,0,1-8,12.61C43.23,78.51,28,77.46,15.22,91.12,5.28,101.78,2.83,115,1.64,121.37c-5.42,29.23,9.12,58.77,28.75,74.78,11,8.94,21.14,11.72,36.74,16,26.22,7.14,34.56,2.46,71.86,5.88,19.19,1.76,38.44,3.52,62.29,10.92,31.24,9.69,33.53,17.62,52.7,18.48,5.1.24,39.55,1.8,58.3-24.36,15.75-22,13.37-53.7,2.39-73.94-12.45-23-28.75-17.87-52.7-48.73-11.72-15.11-8.33-17-24.75-41.18C220.51,34.6,212.16,22.3,197.29,13,169.75-4.27,139.51.67,129.41,2.9,90.62,11.45,70.06,41.33,65.53,48.27Z"/></g></g></svg>
